# xmcd
#
# Track frame offsets: 
#        150
#        12505
#        26570
#        40299
#        56481
#        83998
#
# Disc length: 1374 seconds
#
# Revision: 0
# Processed by: cddbd v1.5.2PL0 Copyright (c) Steve Scherf et al.
# Submitted via: ExactAudioCopy v0.95b3
#
DISCID=45055c06
DTITLE=Robert Plant  - Nine lives - The Honey Drippers Vol 1 [remaster
DTITLE=ed with bonus tracks]
DYEAR=1900
DGENRE=
TTITLE0=I Get a Thrill
TTITLE1=Sea of Love
TTITLE2=I Got a Woman
TTITLE3=Young Boy Blues
TTITLE4=Rockin' at Midnight
TTITLE5=Rockin' At Midnight (Live)
EXTD=
EXTT0=
EXTT1=
EXTT2=
EXTT3=
EXTT4=
EXTT5=
PLAYORDER=
